{"title":"[Anime-Raws] Mushrambo (Shinzo) 01 Awakening [640x480][MPEG-4][A","uid":5952419,"size":302351832,"categoryP":"video","categoryS":"other","magnet":"?xt=urn:btih:4373b751e31cb11cef7f1a378009fe0de0ee5e2c&amp;dn=%5BAnime-Raws%5D+Mushrambo+%28Shinzo%29+01+Awakening+%5B640x480%5D%5BMPEG-4%5D%5BA&amp;tr=udp%3A%2F%2Ftracker.openbittorrent.com%3A80&amp;tr=udp%3A%2F%2Fopen.demonii.com%3A1337&amp;tr=udp%3A%2F%2Ftracker.coppersurfer.tk%3A6969&amp;tr=udp%3A%2F%2Fexodus.desync.com%3A6969","seeders":0,"leechers":1,"uploader":"yuhe","files":1,"time":1289573279,"description":"Video\nID : 1\nFormat : MPEG-4 Visual\nFormat profile : Advanced Simple@L5\nFormat settings, BVOP : Yes\nFormat settings, QPel : No\nFormat settings, GMC : No warppoints\nFormat settings, Matrix : Default (H.263)\nCodec ID : 20\nDuration : 21mn 22s\nBit rate mode : Variable\nBit rate : 1 592 Kbps\nMaximum bit rate : 10.8 Mbps\nWidth : 640 pixels\nHeight : 480 pixels\nDisplay aspect ratio : 4:3\nFrame rate mode : Constant\nFrame rate : 23.976 fps\nColor space : YUV\nChroma subsampling : 4:2:0\nBit depth : 8 bits\nScan type : Progressive\nBits/(Pixel*Frame) : 0.216\nStream size : 243 MiB (84%)\nTitle : Imported with GPAC 0.4.6-DEV (internal rev. 5)\nWriting library : XviD 1.2.1 (UTC 2008-12-04)\nEncoded date : UTC 2010-11-05 21:52:40\nTagged date : UTC 2010-11-05 21:52:59\n\nAudio #1\nID : 2\nFormat : AAC\nFormat/Info : Advanced Audio Codec\nFormat version : Version 4\nFormat profile : LC\nFormat settings, SBR : No\nCodec ID : 40\nDuration : 21mn 22s\nBit rate mode : Variable\nBit rate : 96.0 Kbps\nMaximum bit rate : 103 Kbps\nChannel(s) : 2 channels\nChannel positions : Front: L R\nSampling rate : 44.1 KHz\nStream size : 14.7 MiB (5%)\nTitle : PT-BR\nLanguage : Portuguese\nEncoded date : UTC 2010-11-05 21:52:57\nTagged date : UTC 2010-11-05 21:52:59\n\nAudio #2\nID : 3\nFormat : AAC\nFormat/Info : Advanced Audio Codec\nFormat version : Version 4\nFormat profile : LC\nFormat settings, SBR : No\nCodec ID : 40\nDuration : 21mn 22s\nBit rate mode : Variable\nBit rate : 96.0 Kbps\nMaximum bit rate : 113 Kbps\nChannel(s) : 2 channels\nChannel positions : Front: L R\nSampling rate : 44.1 KHz\nStream size : 14.7 MiB (5%)\nTitle : PT-PT\nLanguage : Portuguese\nEncoded date : UTC 2010-11-05 21:52:58\nTagged date : UTC 2010-11-05 21:52:59\n\nAudio #3\nID : 4\nFormat : AAC\nFormat/Info : Advanced Audio Codec\nFormat version : Version 4\nFormat profile : LC\nFormat settings, SBR : No\nCodec ID : 40\nDuration : 21mn 22s\nBit rate mode : Variable\nBit rate : 96.0 Kbps\nMaximum bit rate : 106 Kbps\nChannel(s) : 2 channels\nChannel positions : Front: L R\nSampling rate : 44.1 KHz\nStream size : 14.7 MiB (5%)\nTitle : Espanhol\nLanguage : Spanish\nEncoded date : UTC 2010-11-05 21:52:58\nTagged date : UTC 2010-11-05 21:52:59","torrent":{"xt":"urn:btih:4373b751e31cb11cef7f1a378009fe0de0ee5e2c","amp;dn":"%5BAnime-Raws%5D+Mushrambo+%28Shinzo%29+01+Awakening+%5B640x480%5D%5BMPEG-4%5D%5BA","amp;tr":["udp%3A%2F%2Ftracker.openbittorrent.com%3A80","udp%3A%2F%2Fopen.demonii.com%3A1337","udp%3A%2F%2Ftracker.coppersurfer.tk%3A6969","udp%3A%2F%2Fexodus.desync.com%3A6969"],"infoHash":"4373b751e31cb11cef7f1a378009fe0de0ee5e2c","infoHashBuffer":{"type":"Buffer","data":[67,115,183,81,227,28,177,28,239,127,26,55,128,9,254,13,224,238,94,44]},"announce":[],"urlList":[]}}